<?xml version="1.0" encoding="UTF-8"?>
<!DOCTYPE svg PUBLIC "-//W3C//DTD SVG 1.1//EN" "http://www.w3.org/Graphics/SVG/1.1/DTD/svg11.dtd">
<svg version="1.1" xmlns="http://www.w3.org/2000/svg" xmlns:xlink="http://www.w3.org/1999/xlink" x="0" y="0" width="209" height="209" viewBox="0, 0, 209, 209">
  <g id="Background">
    <rect x="0" y="0" width="209" height="209" fill="#000000" fill-opacity="0"/>
  </g>
  <g id="Background">
    <path d="M0,0 L209,0 L209,209 L0,209 L0,0 z" fill="#FFFFFF"/>
  </g>
  <g id="Grid">
    <path d="M14.167,0.5 L14.833,209.5" fill-opacity="0" stroke="#B6B6B6" stroke-width="1" stroke-opacity="0.45"/>
    <path d="M26.167,0.5 L26.167,209.5" fill-opacity="0" stroke="#B6B6B6" stroke-width="1" stroke-opacity="0.45"/>
    <path d="M38.5,0.5 L38.5,209.5" fill-opacity="0" stroke="#B6B6B6" stroke-width="1" stroke-opacity="0.45"/>
    <path d="M50.167,0.5 L50.167,209.5" fill-opacity="0" stroke="#B6B6B6" stroke-width="1" stroke-opacity="0.45"/>
    <path d="M62.833,0.5 L62.833,209.5" fill-opacity="0" stroke="#B6B6B6" stroke-width="1" stroke-opacity="0.45"/>
    <path d="M74.833,0.5 L74.833,209.5" fill-opacity="0" stroke="#B6B6B6" stroke-width="1" stroke-opacity="0.45"/>
    <path d="M86.167,0.5 L86.167,209.5" fill-opacity="0" stroke="#B6B6B6" stroke-width="1" stroke-opacity="0.45"/>
    <path d="M98.167,0.5 L98.167,209.5" fill-opacity="0" stroke="#B6B6B6" stroke-width="1" stroke-opacity="0.45"/>
    <path d="M110.833,0.5 L110.833,209.5" fill-opacity="0" stroke="#B6B6B6" stroke-width="1" stroke-opacity="0.45"/>
    <path d="M122.833,0.5 L122.833,209.5" fill-opacity="0" stroke="#B6B6B6" stroke-width="1" stroke-opacity="0.45"/>
    <path d="M134.167,0.5 L134.167,209.5" fill-opacity="0" stroke="#B6B6B6" stroke-width="1" stroke-opacity="0.45"/>
    <path d="M146.833,0.5 L146.833,209.5" fill-opacity="0" stroke="#B6B6B6" stroke-width="1" stroke-opacity="0.45"/>
    <path d="M158.167,0.5 L158.167,209.5" fill-opacity="0" stroke="#B6B6B6" stroke-width="1" stroke-opacity="0.45"/>
    <path d="M170.167,0.5 L170.167,209.5" fill-opacity="0" stroke="#B6B6B6" stroke-width="1" stroke-opacity="0.45"/>
    <path d="M182.833,0.5 L182.833,209.5" fill-opacity="0" stroke="#B6B6B6" stroke-width="1" stroke-opacity="0.45"/>
    <path d="M195.833,0.5 L195.833,209.5" fill-opacity="0" stroke="#B6B6B6" stroke-width="1" stroke-opacity="0.45"/>
    <path d="M206.5,0.5 L206.5,209.5" fill-opacity="0" stroke="#B6B6B6" stroke-width="1" stroke-opacity="0.45"/>
    <path d="M0.5,12.167 L209.5,12.833" fill-opacity="0" stroke="#B6B6B6" stroke-width="1" stroke-opacity="0.45"/>
    <path d="M0.5,23.833 L209.5,24.5" fill-opacity="0" stroke="#B6B6B6" stroke-width="1" stroke-opacity="0.45"/>
    <path d="M0.5,36.833 L209.5,37.5" fill-opacity="0" stroke="#B6B6B6" stroke-width="1" stroke-opacity="0.45"/>
    <path d="M0.5,47.833 L209.5,48.5" fill-opacity="0" stroke="#B6B6B6" stroke-width="1" stroke-opacity="0.45"/>
    <path d="M0.5,60.833 L209.5,61.5" fill-opacity="0" stroke="#B6B6B6" stroke-width="1" stroke-opacity="0.45"/>
    <path d="M0.5,71.833 L209.5,72.5" fill-opacity="0" stroke="#B6B6B6" stroke-width="1" stroke-opacity="0.45"/>
    <path d="M0.5,84.833 L209.5,85.5" fill-opacity="0" stroke="#B6B6B6" stroke-width="1" stroke-opacity="0.45"/>
    <path d="M0.5,96.833 L209.5,97.5" fill-opacity="0" stroke="#B6B6B6" stroke-width="1" stroke-opacity="0.45"/>
    <path d="M0.5,107.833 L209.5,108.5" fill-opacity="0" stroke="#B6B6B6" stroke-width="1" stroke-opacity="0.45"/>
    <path d="M0.5,119.833 L209.5,120.5" fill-opacity="0" stroke="#B6B6B6" stroke-width="1" stroke-opacity="0.45"/>
    <path d="M0.5,131.833 L209.5,132.5" fill-opacity="0" stroke="#B6B6B6" stroke-width="1" stroke-opacity="0.45"/>
    <path d="M0.5,144.833 L209.5,145.5" fill-opacity="0" stroke="#B6B6B6" stroke-width="1" stroke-opacity="0.45"/>
    <path d="M0.5,156.833 L209.5,157.5" fill-opacity="0" stroke="#B6B6B6" stroke-width="1" stroke-opacity="0.45"/>
    <path d="M0.5,168.833 L209.5,169.5" fill-opacity="0" stroke="#B6B6B6" stroke-width="1" stroke-opacity="0.45"/>
    <path d="M0.5,179.833 L209.5,180.5" fill-opacity="0" stroke="#B6B6B6" stroke-width="1" stroke-opacity="0.45"/>
    <path d="M0.5,191.833 L209.5,192.5" fill-opacity="0" stroke="#B6B6B6" stroke-width="1" stroke-opacity="0.45"/>
    <path d="M0.5,203.833 L209.5,204.5" fill-opacity="0" stroke="#B6B6B6" stroke-width="1" stroke-opacity="0.45"/>
    <path d="M2.833,0.5 L3.5,209.5" fill-opacity="0" stroke="#B6B6B6" stroke-width="1" stroke-opacity="0.45"/>
  </g>
  <g id="Hexagon">
    <g>
      <path d="M104.436,209 L14.102,156.928 L14.307,52.428 L104.807,-0 L195.102,52.072 L195.102,157 z" fill="#F80000"/>
      <path d="M104.807,0 L195.102,52.072 L195.102,157 L104.436,209 L14.102,156.928 L14.307,52.428 L104.807,0 z M104.823,16.17 L28.291,60.506 L28.118,148.848 L104.453,192.85 L181.102,148.89 L181.102,60.16 L104.823,16.17 z" fill="#FFFFFE"/>
    </g>
  </g>
  <g id="Diags" display="none">
    <path d="M14.704,52.928 L195.5,157.5" fill-opacity="0" stroke="#B6B6B6" stroke-width="1" stroke-opacity="0.45"/>
    <path d="M14.5,157.428 L195.5,52.928" fill-opacity="0" stroke="#B6B6B6" stroke-width="1" stroke-opacity="0.45"/>
    <path d="M104.833,209.5 L105.204,0.5" fill-opacity="0" stroke="#B6B6B6" stroke-width="1" stroke-opacity="0.45"/>
  </g>
  <g id="Border_Scores">
    <path d="M29.5,149.167 L14.5,157.428" fill-opacity="0" stroke="#B6B6B6" stroke-width="1" stroke-opacity="0.901"/>
    <path d="M14.704,52.928 L29.5,61.5" fill-opacity="0" stroke="#B6B6B6" stroke-width="1" stroke-opacity="0.901"/>
    <path d="M105.204,0.5 L105.204,16.875" fill-opacity="0" stroke="#B6B6B6" stroke-width="1" stroke-opacity="0.901"/>
    <path d="M180.833,60.833 L195.5,52.928" fill-opacity="0" stroke="#B6B6B6" stroke-width="1" stroke-opacity="0.901"/>
    <path d="M180.833,149.167 L195.5,157.5" fill-opacity="0" stroke="#B6B6B6" stroke-width="1" stroke-opacity="0.901"/>
    <path d="M104.833,192.5 L104.833,209.5" fill-opacity="0" stroke="#B6B6B6" stroke-width="1" stroke-opacity="0.901"/>
  </g>
  <g id="Symbol">
    <path d="M95.61,78.683 Q101.015,76.09 104.465,75.101 Q107.914,74.112 111.122,74.112 Q114.462,74.112 116.242,75.035 Q118.022,75.958 118.022,77.716 Q118.022,79.825 115.231,80.924 Q112.441,82.022 107.035,82.022 Q103.168,82.022 96.708,80.748 Q96.269,80.704 96.049,80.66 Q93.368,83.077 92.116,85.296 Q90.864,87.516 90.864,89.757 Q90.864,92.394 92.072,94.173 Q93.281,95.953 96.181,97.491 Q100.488,96.7 103.937,96.327 Q107.387,95.953 110.2,95.953 Q114.946,95.953 117.209,96.898 Q119.472,97.843 119.472,99.82 Q119.472,101.93 116.857,103.006 Q114.243,104.083 109.013,104.083 Q105.234,104.083 101.674,103.424 Q98.115,102.765 94.467,101.358 Q91.039,102.896 89.018,105.775 Q86.996,108.653 86.996,111.993 Q86.996,116.476 90.16,118.651 Q93.325,120.826 99.872,120.826 Q100.751,120.826 102.795,120.782 Q104.838,120.738 105.981,120.738 Q114.243,120.738 117.934,123.243 Q121.625,125.748 121.625,131.241 Q121.625,137.481 116.528,141.437 Q111.43,145.392 103.08,145.392 Q98.993,145.392 97.082,144.425 Q95.17,143.458 95.17,141.437 Q95.17,140.514 95.939,139.876 Q96.708,139.239 97.851,139.239 Q99.037,139.239 102.575,140.294 Q106.113,141.349 108.749,141.349 Q113.1,141.349 115.517,139.393 Q117.934,137.438 117.934,134.054 Q117.934,130.978 115.847,129.769 Q113.759,128.561 108.046,128.561 Q105.805,128.561 103.124,128.648 Q100.444,128.736 100.048,128.736 Q92.314,128.736 87.897,124.913 Q83.481,121.09 83.481,114.41 Q83.481,109.928 85.678,106.302 Q87.875,102.677 92.182,100.04 Q89.897,98.238 88.754,95.997 Q87.612,93.756 87.612,91.031 Q87.612,87.867 88.996,85.296 Q90.38,82.726 93.456,80.221 Q87.524,78.946 84.557,76.771 Q81.591,74.596 81.591,71.563 Q81.591,68.487 84.47,66.795 Q87.348,65.104 92.577,65.104 Q94.291,65.104 95.676,65.301 Q97.06,65.499 98.246,65.895 L97.851,67.696 Q96.62,67.564 95.588,67.455 Q94.555,67.345 94.159,67.345 Q90.776,67.345 89.062,68.509 Q87.348,69.674 87.348,71.959 Q87.348,74.332 89.391,76.002 Q91.435,77.672 95.61,78.683 z" fill="#FFFFFE"/>
  </g>
</svg>
