<?xml version="1.0" encoding="UTF-8"?>
<!DOCTYPE svg PUBLIC "-//W3C//DTD SVG 1.1//EN" "http://www.w3.org/Graphics/SVG/1.1/DTD/svg11.dtd">
<svg version="1.1" xmlns="http://www.w3.org/2000/svg" xmlns:xlink="http://www.w3.org/1999/xlink" x="0" y="0" width="209" height="209" viewBox="0, 0, 209, 209">
  <g id="Background">
    <path d="M0.204,0.748 L209.204,0.748 L209.204,209.748 L0.204,209.748 L0.204,0.748 z" fill="#FFFFFF"/>
  </g>
  <g id="Grid">
    <path d="M14.167,0.5 L14.833,209.5" fill-opacity="0" stroke="#B6B6B6" stroke-width="1" stroke-opacity="0.45"/>
    <path d="M26.167,0.5 L26.167,209.5" fill-opacity="0" stroke="#B6B6B6" stroke-width="1" stroke-opacity="0.45"/>
    <path d="M38.5,0.5 L38.5,209.5" fill-opacity="0" stroke="#B6B6B6" stroke-width="1" stroke-opacity="0.45"/>
    <path d="M50.167,0.5 L50.167,209.5" fill-opacity="0" stroke="#B6B6B6" stroke-width="1" stroke-opacity="0.45"/>
    <path d="M62.833,0.5 L62.833,209.5" fill-opacity="0" stroke="#B6B6B6" stroke-width="1" stroke-opacity="0.45"/>
    <path d="M74.833,0.5 L74.833,209.5" fill-opacity="0" stroke="#B6B6B6" stroke-width="1" stroke-opacity="0.45"/>
    <path d="M86.167,0.5 L86.167,209.5" fill-opacity="0" stroke="#B6B6B6" stroke-width="1" stroke-opacity="0.45"/>
    <path d="M98.167,0.5 L98.167,209.5" fill-opacity="0" stroke="#B6B6B6" stroke-width="1" stroke-opacity="0.45"/>
    <path d="M110.833,0.5 L110.833,209.5" fill-opacity="0" stroke="#B6B6B6" stroke-width="1" stroke-opacity="0.45"/>
    <path d="M122.833,0.5 L122.833,209.5" fill-opacity="0" stroke="#B6B6B6" stroke-width="1" stroke-opacity="0.45"/>
    <path d="M134.167,0.5 L134.167,209.5" fill-opacity="0" stroke="#B6B6B6" stroke-width="1" stroke-opacity="0.45"/>
    <path d="M146.833,0.5 L146.833,209.5" fill-opacity="0" stroke="#B6B6B6" stroke-width="1" stroke-opacity="0.45"/>
    <path d="M158.167,0.5 L158.167,209.5" fill-opacity="0" stroke="#B6B6B6" stroke-width="1" stroke-opacity="0.45"/>
    <path d="M170.167,0.5 L170.167,209.5" fill-opacity="0" stroke="#B6B6B6" stroke-width="1" stroke-opacity="0.45"/>
    <path d="M182.833,0.5 L182.833,209.5" fill-opacity="0" stroke="#B6B6B6" stroke-width="1" stroke-opacity="0.45"/>
    <path d="M195.833,0.5 L195.833,209.5" fill-opacity="0" stroke="#B6B6B6" stroke-width="1" stroke-opacity="0.45"/>
    <path d="M206.5,0.5 L206.5,209.5" fill-opacity="0" stroke="#B6B6B6" stroke-width="1" stroke-opacity="0.45"/>
    <path d="M0.5,12.167 L209.5,12.833" fill-opacity="0" stroke="#B6B6B6" stroke-width="1" stroke-opacity="0.45"/>
    <path d="M0.5,23.833 L209.5,24.5" fill-opacity="0" stroke="#B6B6B6" stroke-width="1" stroke-opacity="0.45"/>
    <path d="M0.5,36.833 L209.5,37.5" fill-opacity="0" stroke="#B6B6B6" stroke-width="1" stroke-opacity="0.45"/>
    <path d="M0.5,47.833 L209.5,48.5" fill-opacity="0" stroke="#B6B6B6" stroke-width="1" stroke-opacity="0.45"/>
    <path d="M0.5,60.833 L209.5,61.5" fill-opacity="0" stroke="#B6B6B6" stroke-width="1" stroke-opacity="0.45"/>
    <path d="M0.5,71.833 L209.5,72.5" fill-opacity="0" stroke="#B6B6B6" stroke-width="1" stroke-opacity="0.45"/>
    <path d="M0.5,84.833 L209.5,85.5" fill-opacity="0" stroke="#B6B6B6" stroke-width="1" stroke-opacity="0.45"/>
    <path d="M0.5,96.833 L209.5,97.5" fill-opacity="0" stroke="#B6B6B6" stroke-width="1" stroke-opacity="0.45"/>
    <path d="M0.5,107.833 L209.5,108.5" fill-opacity="0" stroke="#B6B6B6" stroke-width="1" stroke-opacity="0.45"/>
    <path d="M0.5,119.833 L209.5,120.5" fill-opacity="0" stroke="#B6B6B6" stroke-width="1" stroke-opacity="0.45"/>
    <path d="M0.5,131.833 L209.5,132.5" fill-opacity="0" stroke="#B6B6B6" stroke-width="1" stroke-opacity="0.45"/>
    <path d="M0.5,144.833 L209.5,145.5" fill-opacity="0" stroke="#B6B6B6" stroke-width="1" stroke-opacity="0.45"/>
    <path d="M0.5,156.833 L209.5,157.5" fill-opacity="0" stroke="#B6B6B6" stroke-width="1" stroke-opacity="0.45"/>
    <path d="M0.5,168.833 L209.5,169.5" fill-opacity="0" stroke="#B6B6B6" stroke-width="1" stroke-opacity="0.45"/>
    <path d="M0.5,179.833 L209.5,180.5" fill-opacity="0" stroke="#B6B6B6" stroke-width="1" stroke-opacity="0.45"/>
    <path d="M0.5,191.833 L209.5,192.5" fill-opacity="0" stroke="#B6B6B6" stroke-width="1" stroke-opacity="0.45"/>
    <path d="M0.5,203.833 L209.5,204.5" fill-opacity="0" stroke="#B6B6B6" stroke-width="1" stroke-opacity="0.45"/>
    <path d="M2.833,0.5 L3.5,209.5" fill-opacity="0" stroke="#B6B6B6" stroke-width="1" stroke-opacity="0.45"/>
  </g>
  <g id="Hexagon_(no_border)" display="none">
    <path d="M104.436,209 L14.102,156.928 L14.307,52.428 L104.807,-0 L195.102,52.072 L195.102,157 z" fill="#F80000"/>
  </g>
  <g id="Hexagon_(border)">
    <g>
      <path d="M104.846,201.5 L21.5,153.414 L21.689,56.914 L105.189,8.5 L188.5,56.586 L188.5,153.481 z" fill="#F80000"/>
      <path d="M104.846,201.5 L21.5,153.414 L21.689,56.914 L105.189,8.5 L188.5,56.586 L188.5,153.481 z" fill-opacity="0" stroke="#FFFFFE" stroke-width="14"/>
    </g>
  </g>
  <g id="Diags" display="none">
    <path d="M14.704,52.928 L195.5,157.5" fill-opacity="0" stroke="#B6B6B6" stroke-width="1" stroke-opacity="0.45"/>
    <path d="M14.5,157.428 L195.5,52.928" fill-opacity="0" stroke="#B6B6B6" stroke-width="1" stroke-opacity="0.45"/>
    <path d="M104.833,209.5 L105.204,0.5" fill-opacity="0" stroke="#B6B6B6" stroke-width="1" stroke-opacity="0.45"/>
  </g>
  <g id="Border_Scores">
    <path d="M28.875,148.875 L14.5,157.375" fill-opacity="0" stroke="#B6B6B6" stroke-width="1" stroke-opacity="0.901"/>
    <path d="M14.704,52.928 L28.875,61.125" fill-opacity="0" stroke="#B6B6B6" stroke-width="1" stroke-opacity="0.901"/>
    <path d="M105.204,0.5 L105.204,16.875" fill-opacity="0" stroke="#B6B6B6" stroke-width="1" stroke-opacity="0.901"/>
    <path d="M181.438,61.125 L195.833,52.625" fill-opacity="0" stroke="#B6B6B6" stroke-width="1" stroke-opacity="0.901"/>
    <path d="M181.438,149.438 L195.5,157.5" fill-opacity="0" stroke="#B6B6B6" stroke-width="1" stroke-opacity="0.901"/>
    <path d="M104.833,192.5 L104.833,209.5" fill-opacity="0" stroke="#B6B6B6" stroke-width="1" stroke-opacity="0.901"/>
  </g>
  <g id="Symbol">
    <path d="M98.501,77.935 Q103.907,75.342 107.356,74.354 Q110.806,73.365 114.014,73.365 Q117.354,73.365 119.134,74.288 Q120.914,75.21 120.914,76.968 Q120.914,79.078 118.123,80.176 Q115.333,81.275 109.927,81.275 Q106.06,81.275 99.6,80 Q99.161,79.957 98.941,79.913 Q96.26,82.33 95.008,84.549 Q93.755,86.768 93.755,89.009 Q93.755,91.646 94.964,93.426 Q96.172,95.206 99.073,96.744 Q103.379,95.953 106.829,95.579 Q110.279,95.206 113.091,95.206 Q117.837,95.206 120.101,96.15 Q122.364,97.095 122.364,99.073 Q122.364,101.182 119.749,102.259 Q117.134,103.335 111.905,103.335 Q108.125,103.335 104.566,102.676 Q101.006,102.017 97.359,100.611 Q93.931,102.149 91.91,105.027 Q89.888,107.906 89.888,111.246 Q89.888,115.728 93.052,117.903 Q96.216,120.079 102.764,120.079 Q103.643,120.079 105.687,120.035 Q107.73,119.991 108.873,119.991 Q117.134,119.991 120.826,122.496 Q124.517,125 124.517,130.494 Q124.517,136.734 119.419,140.689 Q114.322,144.644 105.972,144.644 Q101.885,144.644 99.974,143.677 Q98.062,142.71 98.062,140.689 Q98.062,139.766 98.831,139.129 Q99.6,138.492 100.743,138.492 Q101.929,138.492 105.467,139.546 Q109.004,140.601 111.641,140.601 Q115.992,140.601 118.409,138.646 Q120.826,136.69 120.826,133.306 Q120.826,130.23 118.738,129.021 Q116.651,127.813 110.938,127.813 Q108.697,127.813 106.016,127.901 Q103.335,127.989 102.94,127.989 Q95.206,127.989 90.789,124.166 Q86.373,120.342 86.373,113.663 Q86.373,109.18 88.57,105.555 Q90.767,101.929 95.074,99.292 Q92.789,97.491 91.646,95.25 Q90.503,93.008 90.503,90.284 Q90.503,87.12 91.888,84.549 Q93.272,81.978 96.348,79.473 Q90.416,78.199 87.449,76.023 Q84.483,73.848 84.483,70.816 Q84.483,67.74 87.361,66.048 Q90.24,64.356 95.469,64.356 Q97.183,64.356 98.567,64.554 Q99.952,64.751 101.138,65.147 L100.743,66.949 Q99.512,66.817 98.479,66.707 Q97.447,66.597 97.051,66.597 Q93.667,66.597 91.954,67.762 Q90.24,68.926 90.24,71.211 Q90.24,73.584 92.283,75.254 Q94.327,76.924 98.501,77.935 z" fill="#FFFFFE"/>
  </g>
</svg>
